<svg xmlns="http://www.w3.org/2000/svg" viewBox="0 0 32 32" width="32" height="32">
  <style>
    .skull { fill: #2c3e50; }
    .eye { fill: #34495e; }
  </style>
  
  <!-- Skull outline -->
  <path class="skull" d="M16 2C10 2 6 6 6 12v4c0 2 1 4 2 5v3c0 2 2 4 4 4h8c2 0 4-2 4-4v-3c1-1 2-3 2-5v-4c0-6-4-10-10-10z"/>
  
  <!-- Eye sockets -->
  <circle class="eye" cx="12" cy="14" r="2.5"/>
  <circle class="eye" cx="20" cy="14" r="2.5"/>
  
  <!-- Nasal cavity -->
  <path class="eye" d="M16 17l-1.5 3h3z"/>
  
  <!-- Teeth -->
  <rect class="eye" x="13" y="22" width="1" height="3"/>
  <rect class="eye" x="15" y="22" width="1" height="3"/>
  <rect class="eye" x="17" y="22" width="1" height="3"/>
  <rect class="eye" x="19" y="22" width="1" height="3"/>
</svg>
